<?xml version="1.0" encoding="UTF-8" standalone="no"?>
<!DOCTYPE svg PUBLIC "-//W3C//DTD SVG 1.1//EN" "http://www.w3.org/Graphics/SVG/1.1/DTD/svg11.dtd">
<svg xmlns="http://www.w3.org/2000/svg" version="1.1" viewBox="0.00 0.00 30.00 30.00">
<g stroke-width="2.00" fill="none" stroke-linecap="butt">
<path stroke="#808080" vector-effect="non-scaling-stroke" d="
  M 25.55 7.77
  A 4.51 4.51 0.0 0 0 21.04 3.26
  L 6.96 3.26
  A 4.51 4.51 0.0 0 0 2.45 7.77
  L 2.45 21.87
  A 4.51 4.51 0.0 0 0 6.96 26.38
  L 21.04 26.38
  A 4.51 4.51 0.0 0 0 25.55 21.87
  L 25.55 7.77"
/>
<path stroke="#808080" vector-effect="non-scaling-stroke" d="
  M 12.28 10.76
  Q 9.90 8.76 7.81 6.54
  A 1.42 1.41 73.3 0 0 7.00 6.10
  Q 5.54 5.87 5.25 7.12
  A 0.59 0.58 -61.6 0 0 5.41 7.68
  L 20.93 22.87
  A 1.77 1.77 0.0 0 0 22.29 23.36
  L 22.68 23.33
  A 0.25 0.25 0.0 0 0 22.86 22.93
  Q 18.90 17.69 13.98 13.17
  Q 13.52 12.75 13.30 12.16
  Q 12.99 11.35 12.28 10.76"
/>
</g>
<path fill="#ffffff" d="
  M 0.00 0.00
  L 30.00 0.00
  L 30.00 30.00
  L 0.00 30.00
  L 0.00 0.00
  Z
  M 25.55 7.77
  A 4.51 4.51 0.0 0 0 21.04 3.26
  L 6.96 3.26
  A 4.51 4.51 0.0 0 0 2.45 7.77
  L 2.45 21.87
  A 4.51 4.51 0.0 0 0 6.96 26.38
  L 21.04 26.38
  A 4.51 4.51 0.0 0 0 25.55 21.87
  L 25.55 7.77
  Z"
/>
<path fill="#000000" d="
  M 25.55 21.87
  A 4.51 4.51 0.0 0 1 21.04 26.38
  L 6.96 26.38
  A 4.51 4.51 0.0 0 1 2.45 21.87
  L 2.45 7.77
  A 4.51 4.51 0.0 0 1 6.96 3.26
  L 21.04 3.26
  A 4.51 4.51 0.0 0 1 25.55 7.77
  L 25.55 21.87
  Z
  M 12.28 10.76
  Q 9.90 8.76 7.81 6.54
  A 1.42 1.41 73.3 0 0 7.00 6.10
  Q 5.54 5.87 5.25 7.12
  A 0.59 0.58 -61.6 0 0 5.41 7.68
  L 20.93 22.87
  A 1.77 1.77 0.0 0 0 22.29 23.36
  L 22.68 23.33
  A 0.25 0.25 0.0 0 0 22.86 22.93
  Q 18.90 17.69 13.98 13.17
  Q 13.52 12.75 13.30 12.16
  Q 12.99 11.35 12.28 10.76
  Z"
/>
<path fill="#ffffff" d="
  M 12.28 10.76
  Q 12.99 11.35 13.30 12.16
  Q 13.52 12.75 13.98 13.17
  Q 18.90 17.69 22.86 22.93
  A 0.25 0.25 0.0 0 1 22.68 23.33
  L 22.29 23.36
  A 1.77 1.77 0.0 0 1 20.93 22.87
  L 5.41 7.68
  A 0.59 0.58 -61.6 0 1 5.25 7.12
  Q 5.54 5.87 7.00 6.10
  A 1.42 1.41 73.3 0 1 7.81 6.54
  Q 9.90 8.76 12.28 10.76
  Z"
/>
</svg>
