<?xml version="1.0" encoding="UTF-8" standalone="no"?>
<!DOCTYPE svg PUBLIC "-//W3C//DTD SVG 1.1//EN" "http://www.w3.org/Graphics/SVG/1.1/DTD/svg11.dtd">
<svg xmlns="http://www.w3.org/2000/svg" version="1.1" viewBox="0.00 0.00 29.00 26.00">
<g stroke-width="2.00" fill="none" stroke-linecap="butt">
<path stroke="#808080" vector-effect="non-scaling-stroke" d="
  M 25.7020 6.2400
  A 4.55 4.55 0.0 0 0 21.1599 1.6821
  L 7.3199 1.6579
  A 4.55 4.55 0.0 0 0 2.7620 6.2000
  L 2.7380 19.9200
  A 4.55 4.55 0.0 0 0 7.2801 24.4779
  L 21.1201 24.5021
  A 4.55 4.55 0.0 0 0 25.6780 19.9600
  L 25.7020 6.2400"
/>
<path stroke="#808080" vector-effect="non-scaling-stroke" d="
  M 11.39 11.71
  Q 11.16 12.50 10.36 12.30
  Q 9.22 12.01 8.27 11.15
  A 1.72 1.72 0.0 0 0 5.52 11.77
  Q 4.99 13.06 5.72 14.12
  A 1.71 1.70 -34.7 0 0 8.10 14.55
  L 9.85 13.33
  A 0.97 0.95 -49.9 0 1 10.79 13.24
  Q 11.59 13.59 11.45 14.52
  Q 11.37 15.09 10.81 15.19
  Q 9.81 15.37 8.81 15.54
  C 7.10 15.84 6.78 17.83 7.90 18.98
  A 1.88 1.88 0.0 0 0 11.09 18.05
  L 11.57 15.73
  Q 11.77 14.79 12.66 15.14
  L 13.33 15.40
  A 0.98 0.98 0.0 0 1 13.87 16.70
  Q 13.44 17.68 12.69 18.47
  A 1.82 1.82 0.0 0 0 13.76 21.54
  Q 14.89 21.69 15.82 20.96
  A 1.18 1.18 0.0 0 0 16.26 19.81
  Q 15.99 18.42 14.99 17.26
  A 1.24 1.23 -35.1 0 1 15.32 15.38
  Q 15.95 15.02 16.56 15.29
  Q 17.01 15.49 17.10 15.98
  L 17.52 18.27
  A 1.65 1.65 0.0 0 0 19.63 19.54
  Q 21.39 18.98 21.37 17.26
  A 1.74 1.74 0.0 0 0 19.86 15.56
  L 17.85 15.30
  Q 17.34 15.23 17.24 14.72
  Q 17.14 14.15 17.39 13.57
  A 0.81 0.80 -62.7 0 1 18.53 13.20
  C 19.88 13.98 21.80 16.16 23.16 13.73
  A 1.76 1.73 -37.9 0 0 23.33 12.45
  C 22.96 10.96 21.59 10.07 20.30 11.13
  Q 19.53 11.77 18.68 12.25
  A 1.00 0.99 61.4 0 1 17.31 11.84
  Q 17.01 11.25 17.39 10.69
  Q 17.73 10.21 18.32 10.17
  Q 19.26 10.12 20.16 9.85
  A 1.73 1.72 77.2 0 0 21.37 7.92
  Q 21.12 6.33 19.42 6.10
  A 1.75 1.74 8.4 0 0 17.46 7.55
  L 17.15 9.46
  A 1.18 1.18 0.0 0 1 15.22 10.17
  Q 14.14 9.26 15.13 8.20
  Q 16.02 7.24 16.30 6.10
  A 1.62 1.62 0.0 0 0 15.27 4.19
  Q 14.04 3.75 13.06 4.33
  A 1.82 1.82 0.0 0 0 12.56 7.04
  L 13.70 8.46
  A 1.09 1.08 -41.7 0 1 13.61 9.91
  Q 13.28 10.23 12.82 10.37
  Q 12.05 10.59 11.65 9.89
  C 11.03 8.83 11.55 7.70 10.62 6.68
  Q 10.03 6.03 9.14 6.09
  A 1.98 1.98 0.0 0 0 7.29 7.79
  C 6.95 10.14 9.37 9.96 10.88 10.36
  Q 11.70 10.59 11.47 11.41
  L 11.39 11.71"
/>
<path stroke="#808080" vector-effect="non-scaling-stroke" d="
  M 15.73 12.80
  A 1.45 1.45 0.0 0 0 14.28 11.35
  A 1.45 1.45 0.0 0 0 12.83 12.80
  A 1.45 1.45 0.0 0 0 14.28 14.25
  A 1.45 1.45 0.0 0 0 15.73 12.80"
/>
</g>
<path fill="#ffffff" d="
  M 0.00 0.00
  L 29.00 0.00
  L 29.00 26.00
  L 0.00 26.00
  L 0.00 0.00
  Z
  M 25.7020 6.2400
  A 4.55 4.55 0.0 0 0 21.1599 1.6821
  L 7.3199 1.6579
  A 4.55 4.55 0.0 0 0 2.7620 6.2000
  L 2.7380 19.9200
  A 4.55 4.55 0.0 0 0 7.2801 24.4779
  L 21.1201 24.5021
  A 4.55 4.55 0.0 0 0 25.6780 19.9600
  L 25.7020 6.2400
  Z"
/>
<path fill="#000000" d="
  M 25.6780 19.9600
  A 4.55 4.55 0.0 0 1 21.1201 24.5021
  L 7.2801 24.4779
  A 4.55 4.55 0.0 0 1 2.7380 19.9200
  L 2.7620 6.2000
  A 4.55 4.55 0.0 0 1 7.3199 1.6579
  L 21.1599 1.6821
  A 4.55 4.55 0.0 0 1 25.7020 6.2400
  L 25.6780 19.9600
  Z
  M 11.39 11.71
  Q 11.16 12.50 10.36 12.30
  Q 9.22 12.01 8.27 11.15
  A 1.72 1.72 0.0 0 0 5.52 11.77
  Q 4.99 13.06 5.72 14.12
  A 1.71 1.70 -34.7 0 0 8.10 14.55
  L 9.85 13.33
  A 0.97 0.95 -49.9 0 1 10.79 13.24
  Q 11.59 13.59 11.45 14.52
  Q 11.37 15.09 10.81 15.19
  Q 9.81 15.37 8.81 15.54
  C 7.10 15.84 6.78 17.83 7.90 18.98
  A 1.88 1.88 0.0 0 0 11.09 18.05
  L 11.57 15.73
  Q 11.77 14.79 12.66 15.14
  L 13.33 15.40
  A 0.98 0.98 0.0 0 1 13.87 16.70
  Q 13.44 17.68 12.69 18.47
  A 1.82 1.82 0.0 0 0 13.76 21.54
  Q 14.89 21.69 15.82 20.96
  A 1.18 1.18 0.0 0 0 16.26 19.81
  Q 15.99 18.42 14.99 17.26
  A 1.24 1.23 -35.1 0 1 15.32 15.38
  Q 15.95 15.02 16.56 15.29
  Q 17.01 15.49 17.10 15.98
  L 17.52 18.27
  A 1.65 1.65 0.0 0 0 19.63 19.54
  Q 21.39 18.98 21.37 17.26
  A 1.74 1.74 0.0 0 0 19.86 15.56
  L 17.85 15.30
  Q 17.34 15.23 17.24 14.72
  Q 17.14 14.15 17.39 13.57
  A 0.81 0.80 -62.7 0 1 18.53 13.20
  C 19.88 13.98 21.80 16.16 23.16 13.73
  A 1.76 1.73 -37.9 0 0 23.33 12.45
  C 22.96 10.96 21.59 10.07 20.30 11.13
  Q 19.53 11.77 18.68 12.25
  A 1.00 0.99 61.4 0 1 17.31 11.84
  Q 17.01 11.25 17.39 10.69
  Q 17.73 10.21 18.32 10.17
  Q 19.26 10.12 20.16 9.85
  A 1.73 1.72 77.2 0 0 21.37 7.92
  Q 21.12 6.33 19.42 6.10
  A 1.75 1.74 8.4 0 0 17.46 7.55
  L 17.15 9.46
  A 1.18 1.18 0.0 0 1 15.22 10.17
  Q 14.14 9.26 15.13 8.20
  Q 16.02 7.24 16.30 6.10
  A 1.62 1.62 0.0 0 0 15.27 4.19
  Q 14.04 3.75 13.06 4.33
  A 1.82 1.82 0.0 0 0 12.56 7.04
  L 13.70 8.46
  A 1.09 1.08 -41.7 0 1 13.61 9.91
  Q 13.28 10.23 12.82 10.37
  Q 12.05 10.59 11.65 9.89
  C 11.03 8.83 11.55 7.70 10.62 6.68
  Q 10.03 6.03 9.14 6.09
  A 1.98 1.98 0.0 0 0 7.29 7.79
  C 6.95 10.14 9.37 9.96 10.88 10.36
  Q 11.70 10.59 11.47 11.41
  L 11.39 11.71
  Z"
/>
<path fill="#ffffff" d="
  M 10.88 10.36
  C 9.37 9.96 6.95 10.14 7.29 7.79
  A 1.98 1.98 0.0 0 1 9.14 6.09
  Q 10.03 6.03 10.62 6.68
  C 11.55 7.70 11.03 8.83 11.65 9.89
  Q 12.05 10.59 12.82 10.37
  Q 13.28 10.23 13.61 9.91
  A 1.09 1.08 -41.7 0 0 13.70 8.46
  L 12.56 7.04
  A 1.82 1.82 0.0 0 1 13.06 4.33
  Q 14.04 3.75 15.27 4.19
  A 1.62 1.62 0.0 0 1 16.30 6.10
  Q 16.02 7.24 15.13 8.20
  Q 14.14 9.26 15.22 10.17
  A 1.18 1.18 0.0 0 0 17.15 9.46
  L 17.46 7.55
  A 1.75 1.74 8.4 0 1 19.42 6.10
  Q 21.12 6.33 21.37 7.92
  A 1.73 1.72 77.2 0 1 20.16 9.85
  Q 19.26 10.12 18.32 10.17
  Q 17.73 10.21 17.39 10.69
  Q 17.01 11.25 17.31 11.84
  A 1.00 0.99 61.4 0 0 18.68 12.25
  Q 19.53 11.77 20.30 11.13
  C 21.59 10.07 22.96 10.96 23.33 12.45
  A 1.76 1.73 -37.9 0 1 23.16 13.73
  C 21.80 16.16 19.88 13.98 18.53 13.20
  A 0.81 0.80 -62.7 0 0 17.39 13.57
  Q 17.14 14.15 17.24 14.72
  Q 17.34 15.23 17.85 15.30
  L 19.86 15.56
  A 1.74 1.74 0.0 0 1 21.37 17.26
  Q 21.39 18.98 19.63 19.54
  A 1.65 1.65 0.0 0 1 17.52 18.27
  L 17.10 15.98
  Q 17.01 15.49 16.56 15.29
  Q 15.95 15.02 15.32 15.38
  A 1.24 1.23 -35.1 0 0 14.99 17.26
  Q 15.99 18.42 16.26 19.81
  A 1.18 1.18 0.0 0 1 15.82 20.96
  Q 14.89 21.69 13.76 21.54
  A 1.82 1.82 0.0 0 1 12.69 18.47
  Q 13.44 17.68 13.87 16.70
  A 0.98 0.98 0.0 0 0 13.33 15.40
  L 12.66 15.14
  Q 11.77 14.79 11.57 15.73
  L 11.09 18.05
  A 1.88 1.88 0.0 0 1 7.90 18.98
  C 6.78 17.83 7.10 15.84 8.81 15.54
  Q 9.81 15.37 10.81 15.19
  Q 11.37 15.09 11.45 14.52
  Q 11.59 13.59 10.79 13.24
  A 0.97 0.95 -49.9 0 0 9.85 13.33
  L 8.10 14.55
  A 1.71 1.70 -34.7 0 1 5.72 14.12
  Q 4.99 13.06 5.52 11.77
  A 1.72 1.72 0.0 0 1 8.27 11.15
  Q 9.22 12.01 10.36 12.30
  Q 11.16 12.50 11.39 11.71
  L 11.47 11.41
  Q 11.70 10.59 10.88 10.36
  Z
  M 15.73 12.80
  A 1.45 1.45 0.0 0 0 14.28 11.35
  A 1.45 1.45 0.0 0 0 12.83 12.80
  A 1.45 1.45 0.0 0 0 14.28 14.25
  A 1.45 1.45 0.0 0 0 15.73 12.80
  Z"
/>
<circle fill="#000000" cx="14.28" cy="12.80" r="1.45"/>
</svg>
