<?xml version="1.0" encoding="UTF-8" standalone="no"?>
<!DOCTYPE svg PUBLIC "-//W3C//DTD SVG 1.1//EN" "http://www.w3.org/Graphics/SVG/1.1/DTD/svg11.dtd">
<svg xmlns="http://www.w3.org/2000/svg" version="1.1" viewBox="0.00 0.00 28.00 25.00">
<g stroke-width="2.00" fill="none" stroke-linecap="butt">
<path stroke="#808080" vector-effect="non-scaling-stroke" d="
  M 25.4181 5.2309
  A 4.19 4.19 0.0 0 0 21.2208 1.0482
  L 7.6608 1.0719
  A 4.19 4.19 0.0 0 0 3.4782 5.2692
  L 3.5019 18.8491
  A 4.19 4.19 0.0 0 0 7.6992 23.0318
  L 21.2592 23.0081
  A 4.19 4.19 0.0 0 0 25.4418 18.8108
  L 25.4181 5.2309"
/>
<path stroke="#808080" vector-effect="non-scaling-stroke" d="
  M 13.95 15.18
  L 12.08 17.03
  Q 11.65 17.46 12.07 17.89
  L 14.07 19.93
  Q 14.50 20.37 14.94 19.93
  L 16.96 17.91
  Q 17.41 17.45 16.94 17.01
  L 14.89 15.07
  A 0.50 0.50 0.0 0 1 14.87 14.36
  L 16.97 12.18
  Q 17.40 11.73 16.94 11.31
  L 15.02 9.54
  Q 14.50 9.06 14.99 8.56
  L 17.07 6.45
  Q 17.39 6.13 17.06 5.81
  L 14.83 3.63
  Q 14.49 3.30 14.16 3.64
  L 12.28 5.53
  A 0.96 0.96 0.0 0 0 12.27 6.88
  Q 12.55 7.17 12.87 7.38
  Q 15.36 9.08 12.65 10.65
  A 1.24 1.24 0.0 0 0 12.42 12.62
  L 13.94 14.06
  Q 14.52 14.62 13.95 15.18"
/>
<path stroke="#808080" vector-effect="non-scaling-stroke" d="
  M 11.3128 12.2231
  A 0.56 0.56 0.0 0 0 11.3086 11.4311
  L 9.2331 9.3772
  A 0.56 0.56 0.0 0 0 8.4411 9.3814
  L 6.3872 11.4569
  A 0.56 0.56 0.0 0 0 6.3914 12.2489
  L 8.4669 14.3028
  A 0.56 0.56 0.0 0 0 9.2589 14.2986
  L 11.3128 12.2231"
/>
<path stroke="#808080" vector-effect="non-scaling-stroke" d="
  M 20.6069 9.4339
  A 0.61 0.61 0.0 0 0 19.7443 9.4294
  L 17.7540 11.3989
  A 0.61 0.61 0.0 0 0 17.7495 12.2616
  L 19.7331 14.2661
  A 0.61 0.61 0.0 0 0 20.5957 14.2706
  L 22.5860 12.3011
  A 0.61 0.61 0.0 0 0 22.5905 11.4384
  L 20.6069 9.4339"
/>
</g>
<path fill="#ffffff" d="
  M 0.00 0.00
  L 28.00 0.00
  L 28.00 25.00
  L 0.00 25.00
  L 0.00 0.00
  Z
  M 25.4181 5.2309
  A 4.19 4.19 0.0 0 0 21.2208 1.0482
  L 7.6608 1.0719
  A 4.19 4.19 0.0 0 0 3.4782 5.2692
  L 3.5019 18.8491
  A 4.19 4.19 0.0 0 0 7.6992 23.0318
  L 21.2592 23.0081
  A 4.19 4.19 0.0 0 0 25.4418 18.8108
  L 25.4181 5.2309
  Z"
/>
<path fill="#000000" d="
  M 25.4418 18.8108
  A 4.19 4.19 0.0 0 1 21.2592 23.0081
  L 7.6992 23.0318
  A 4.19 4.19 0.0 0 1 3.5019 18.8491
  L 3.4782 5.2692
  A 4.19 4.19 0.0 0 1 7.6608 1.0719
  L 21.2208 1.0482
  A 4.19 4.19 0.0 0 1 25.4181 5.2309
  L 25.4418 18.8108
  Z
  M 13.95 15.18
  L 12.08 17.03
  Q 11.65 17.46 12.07 17.89
  L 14.07 19.93
  Q 14.50 20.37 14.94 19.93
  L 16.96 17.91
  Q 17.41 17.45 16.94 17.01
  L 14.89 15.07
  A 0.50 0.50 0.0 0 1 14.87 14.36
  L 16.97 12.18
  Q 17.40 11.73 16.94 11.31
  L 15.02 9.54
  Q 14.50 9.06 14.99 8.56
  L 17.07 6.45
  Q 17.39 6.13 17.06 5.81
  L 14.83 3.63
  Q 14.49 3.30 14.16 3.64
  L 12.28 5.53
  A 0.96 0.96 0.0 0 0 12.27 6.88
  Q 12.55 7.17 12.87 7.38
  Q 15.36 9.08 12.65 10.65
  A 1.24 1.24 0.0 0 0 12.42 12.62
  L 13.94 14.06
  Q 14.52 14.62 13.95 15.18
  Z
  M 11.3128 12.2231
  A 0.56 0.56 0.0 0 0 11.3086 11.4311
  L 9.2331 9.3772
  A 0.56 0.56 0.0 0 0 8.4411 9.3814
  L 6.3872 11.4569
  A 0.56 0.56 0.0 0 0 6.3914 12.2489
  L 8.4669 14.3028
  A 0.56 0.56 0.0 0 0 9.2589 14.2986
  L 11.3128 12.2231
  Z
  M 20.6069 9.4339
  A 0.61 0.61 0.0 0 0 19.7443 9.4294
  L 17.7540 11.3989
  A 0.61 0.61 0.0 0 0 17.7495 12.2616
  L 19.7331 14.2661
  A 0.61 0.61 0.0 0 0 20.5957 14.2706
  L 22.5860 12.3011
  A 0.61 0.61 0.0 0 0 22.5905 11.4384
  L 20.6069 9.4339
  Z"
/>
<path fill="#ffffff" d="
  M 13.94 14.06
  L 12.42 12.62
  A 1.24 1.24 0.0 0 1 12.65 10.65
  Q 15.36 9.08 12.87 7.38
  Q 12.55 7.17 12.27 6.88
  A 0.96 0.96 0.0 0 1 12.28 5.53
  L 14.16 3.64
  Q 14.49 3.30 14.83 3.63
  L 17.06 5.81
  Q 17.39 6.13 17.07 6.45
  L 14.99 8.56
  Q 14.50 9.06 15.02 9.54
  L 16.94 11.31
  Q 17.40 11.73 16.97 12.18
  L 14.87 14.36
  A 0.50 0.50 0.0 0 0 14.89 15.07
  L 16.94 17.01
  Q 17.41 17.45 16.96 17.91
  L 14.94 19.93
  Q 14.50 20.37 14.07 19.93
  L 12.07 17.89
  Q 11.65 17.46 12.08 17.03
  L 13.95 15.18
  Q 14.52 14.62 13.94 14.06
  Z"
/>
<rect fill="#ffffff" x="-2.02" y="-2.02" transform="translate(8.85,11.84) rotate(44.7)" width="4.04" height="4.04" rx="0.56"/>
<rect fill="#ffffff" x="-2.01" y="-2.02" transform="translate(20.17,11.85) rotate(-44.7)" width="4.02" height="4.04" rx="0.61"/>
</svg>
